<?xml version="1.0" encoding="UTF-8" standalone="no"?>
<!DOCTYPE svg PUBLIC "-//W3C//DTD SVG 1.1//EN"
 "http://www.w3.org/Graphics/SVG/1.1/DTD/svg11.dtd">
<!-- Generated by graphviz version 2.47.0 (20210316.0004)
 -->
<!-- Title: dbml Pages: 1 -->
<svg width="1165pt" height="1954pt"
 viewBox="0.00 0.00 1165.47 1953.92" xmlns="http://www.w3.org/2000/svg" xmlns:xlink="http://www.w3.org/1999/xlink">
<g id="graph0" class="graph" transform="scale(1 1) rotate(0) translate(4 1949.92)">
<title>dbml</title>
<!-- cuisines -->
<g id="cuisines" class="node">
<title>cuisines</title>
<ellipse fill="none" stroke="black" stroke-width="0" cx="927.66" cy="-1642.39" rx="188.18" ry="130.22"/>
<polygon fill="#1d71b8" stroke="transparent" points="796.66,-1672.39 796.66,-1732.39 1058.66,-1732.39 1058.66,-1672.39 796.66,-1672.39"/>
<polygon fill="none" stroke="#29235c" points="796.66,-1672.39 796.66,-1732.39 1058.66,-1732.39 1058.66,-1672.39 796.66,-1672.39"/>
<text text-anchor="start" x="807.63" y="-1693.59" font-family="Helvetica,sans-Serif" font-weight="bold" font-size="32.00" fill="#ffffff"> &#160;&#160;&#160;&#160;&#160;&#160;cuisines &#160;&#160;&#160;&#160;&#160;&#160;</text>
<polygon fill="#e7e2dd" stroke="transparent" points="796.66,-1612.39 796.66,-1672.39 1058.66,-1672.39 1058.66,-1612.39 796.66,-1612.39"/>
<polygon fill="none" stroke="#29235c" points="796.66,-1612.39 796.66,-1672.39 1058.66,-1672.39 1058.66,-1612.39 796.66,-1612.39"/>
<text text-anchor="start" x="807.66" y="-1633.59" font-family="Helvetica,sans-Serif" font-weight="bold" font-size="32.00" fill="#29235c">id</text>
<text text-anchor="start" x="832.55" y="-1633.59" font-family="Helvetica,sans-Serif" font-size="32.00" fill="#29235c"> &#160;&#160;&#160;</text>
<text text-anchor="start" x="932.14" y="-1633.59" font-family="Helvetica,sans-Serif" font-style="italic" font-size="32.00" fill="#29235c">serial</text>
<text text-anchor="start" x="1008.57" y="-1633.59" font-family="Helvetica,sans-Serif" font-size="32.00" fill="#29235c"> </text>
<text text-anchor="start" x="1017.46" y="-1633.59" font-family="Helvetica,sans-Serif" font-weight="bold" font-size="32.00" fill="#29235c">(!)</text>
<polygon fill="#e7e2dd" stroke="transparent" points="796.66,-1552.39 796.66,-1612.39 1058.66,-1612.39 1058.66,-1552.39 796.66,-1552.39"/>
<polygon fill="none" stroke="#29235c" points="796.66,-1552.39 796.66,-1612.39 1058.66,-1612.39 1058.66,-1552.39 796.66,-1552.39"/>
<text text-anchor="start" x="807.66" y="-1572.59" font-family="Helvetica,sans-Serif" font-size="32.00" fill="#29235c">name &#160;&#160;&#160;</text>
<text text-anchor="start" x="957" y="-1573.59" font-family="Helvetica,sans-Serif" font-style="italic" font-size="32.00" fill="#29235c">text</text>
<text text-anchor="start" x="1008.57" y="-1573.59" font-family="Helvetica,sans-Serif" font-size="32.00" fill="#29235c"> </text>
<text text-anchor="start" x="1017.46" y="-1573.59" font-family="Helvetica,sans-Serif" font-weight="bold" font-size="32.00" fill="#29235c">(!)</text>
<polygon fill="none" stroke="#29235c" stroke-width="2" points="795.66,-1551.39 795.66,-1733.39 1059.66,-1733.39 1059.66,-1551.39 795.66,-1551.39"/>
</g>
<!-- food_items -->
<g id="food_items" class="node">
<title>food_items</title>
<ellipse fill="none" stroke="black" stroke-width="0" cx="927.66" cy="-662.39" rx="216.25" ry="130.22"/>
<polygon fill="#1d71b8" stroke="transparent" points="776.66,-692.39 776.66,-752.39 1078.66,-752.39 1078.66,-692.39 776.66,-692.39"/>
<polygon fill="none" stroke="#29235c" points="776.66,-692.39 776.66,-752.39 1078.66,-752.39 1078.66,-692.39 776.66,-692.39"/>
<text text-anchor="start" x="787.17" y="-713.59" font-family="Helvetica,sans-Serif" font-weight="bold" font-size="32.00" fill="#ffffff"> &#160;&#160;&#160;&#160;&#160;&#160;food_items &#160;&#160;&#160;&#160;&#160;&#160;</text>
<polygon fill="#e7e2dd" stroke="transparent" points="776.66,-632.39 776.66,-692.39 1078.66,-692.39 1078.66,-632.39 776.66,-632.39"/>
<polygon fill="none" stroke="#29235c" points="776.66,-632.39 776.66,-692.39 1078.66,-692.39 1078.66,-632.39 776.66,-632.39"/>
<text text-anchor="start" x="787.66" y="-653.59" font-family="Helvetica,sans-Serif" font-weight="bold" font-size="32.00" fill="#29235c">id</text>
<text text-anchor="start" x="812.55" y="-653.59" font-family="Helvetica,sans-Serif" font-size="32.00" fill="#29235c"> &#160;&#160;&#160;</text>
<text text-anchor="start" x="952.14" y="-653.59" font-family="Helvetica,sans-Serif" font-style="italic" font-size="32.00" fill="#29235c">serial</text>
<text text-anchor="start" x="1028.57" y="-653.59" font-family="Helvetica,sans-Serif" font-size="32.00" fill="#29235c"> </text>
<text text-anchor="start" x="1037.46" y="-653.59" font-family="Helvetica,sans-Serif" font-weight="bold" font-size="32.00" fill="#29235c">(!)</text>
<polygon fill="#e7e2dd" stroke="transparent" points="776.66,-572.39 776.66,-632.39 1078.66,-632.39 1078.66,-572.39 776.66,-572.39"/>
<polygon fill="none" stroke="#29235c" points="776.66,-572.39 776.66,-632.39 1078.66,-632.39 1078.66,-572.39 776.66,-572.39"/>
<text text-anchor="start" x="787.66" y="-592.59" font-family="Helvetica,sans-Serif" font-size="32.00" fill="#29235c">name &#160;&#160;&#160;</text>
<text text-anchor="start" x="977" y="-593.59" font-family="Helvetica,sans-Serif" font-style="italic" font-size="32.00" fill="#29235c">text</text>
<text text-anchor="start" x="1028.57" y="-593.59" font-family="Helvetica,sans-Serif" font-size="32.00" fill="#29235c"> </text>
<text text-anchor="start" x="1037.46" y="-593.59" font-family="Helvetica,sans-Serif" font-weight="bold" font-size="32.00" fill="#29235c">(!)</text>
<polygon fill="none" stroke="#29235c" stroke-width="2" points="775.66,-571.39 775.66,-753.39 1079.66,-753.39 1079.66,-571.39 775.66,-571.39"/>
</g>
<!-- food_ratings -->
<g id="food_ratings" class="node">
<title>food_ratings</title>
<ellipse fill="none" stroke="black" stroke-width="0" cx="330.93" cy="-572.39" rx="271.56" ry="257.27"/>
<polygon fill="#1d71b8" stroke="transparent" points="140.93,-692.39 140.93,-752.39 520.93,-752.39 520.93,-692.39 140.93,-692.39"/>
<polygon fill="none" stroke="#29235c" points="140.93,-692.39 140.93,-752.39 520.93,-752.39 520.93,-692.39 140.93,-692.39"/>
<text text-anchor="start" x="180.65" y="-713.59" font-family="Helvetica,sans-Serif" font-weight="bold" font-size="32.00" fill="#ffffff"> &#160;&#160;&#160;&#160;&#160;&#160;food_ratings &#160;&#160;&#160;&#160;&#160;&#160;</text>
<polygon fill="#e7e2dd" stroke="transparent" points="140.93,-632.39 140.93,-692.39 520.93,-692.39 520.93,-632.39 140.93,-632.39"/>
<polygon fill="none" stroke="#29235c" points="140.93,-632.39 140.93,-692.39 520.93,-692.39 520.93,-632.39 140.93,-632.39"/>
<text text-anchor="start" x="151.93" y="-653.59" font-family="Helvetica,sans-Serif" font-weight="bold" font-size="32.00" fill="#29235c">id</text>
<text text-anchor="start" x="176.82" y="-653.59" font-family="Helvetica,sans-Serif" font-size="32.00" fill="#29235c"> &#160;&#160;&#160;</text>
<text text-anchor="start" x="394.4" y="-653.59" font-family="Helvetica,sans-Serif" font-style="italic" font-size="32.00" fill="#29235c">serial</text>
<text text-anchor="start" x="470.83" y="-653.59" font-family="Helvetica,sans-Serif" font-size="32.00" fill="#29235c"> </text>
<text text-anchor="start" x="479.73" y="-653.59" font-family="Helvetica,sans-Serif" font-weight="bold" font-size="32.00" fill="#29235c">(!)</text>
<polygon fill="#e7e2dd" stroke="transparent" points="140.93,-572.39 140.93,-632.39 520.93,-632.39 520.93,-572.39 140.93,-572.39"/>
<polygon fill="none" stroke="#29235c" points="140.93,-572.39 140.93,-632.39 520.93,-632.39 520.93,-572.39 140.93,-572.39"/>
<text text-anchor="start" x="151.93" y="-592.59" font-family="Helvetica,sans-Serif" font-size="32.00" fill="#29235c">food_id &#160;&#160;&#160;</text>
<text text-anchor="start" x="373.03" y="-593.59" font-family="Helvetica,sans-Serif" font-style="italic" font-size="32.00" fill="#29235c">integer</text>
<text text-anchor="start" x="470.83" y="-593.59" font-family="Helvetica,sans-Serif" font-size="32.00" fill="#29235c"> </text>
<text text-anchor="start" x="479.73" y="-593.59" font-family="Helvetica,sans-Serif" font-weight="bold" font-size="32.00" fill="#29235c">(!)</text>
<polygon fill="#e7e2dd" stroke="transparent" points="140.93,-512.39 140.93,-572.39 520.93,-572.39 520.93,-512.39 140.93,-512.39"/>
<polygon fill="none" stroke="#29235c" points="140.93,-512.39 140.93,-572.39 520.93,-572.39 520.93,-512.39 140.93,-512.39"/>
<text text-anchor="start" x="151.78" y="-532.59" font-family="Helvetica,sans-Serif" font-size="32.00" fill="#29235c">restaurant_id &#160;&#160;&#160;</text>
<text text-anchor="start" x="373.48" y="-533.59" font-family="Helvetica,sans-Serif" font-style="italic" font-size="32.00" fill="#29235c">integer</text>
<text text-anchor="start" x="471.28" y="-533.59" font-family="Helvetica,sans-Serif" font-size="32.00" fill="#29235c"> </text>
<text text-anchor="start" x="480.17" y="-533.59" font-family="Helvetica,sans-Serif" font-weight="bold" font-size="32.00" fill="#29235c">(!)</text>
<polygon fill="#e7e2dd" stroke="transparent" points="140.93,-452.39 140.93,-512.39 520.93,-512.39 520.93,-452.39 140.93,-452.39"/>
<polygon fill="none" stroke="#29235c" points="140.93,-452.39 140.93,-512.39 520.93,-512.39 520.93,-452.39 140.93,-452.39"/>
<text text-anchor="start" x="151.93" y="-472.59" font-family="Helvetica,sans-Serif" font-size="32.00" fill="#29235c">user_id &#160;&#160;&#160;</text>
<text text-anchor="start" x="373.03" y="-473.59" font-family="Helvetica,sans-Serif" font-style="italic" font-size="32.00" fill="#29235c">integer</text>
<text text-anchor="start" x="470.83" y="-473.59" font-family="Helvetica,sans-Serif" font-size="32.00" fill="#29235c"> </text>
<text text-anchor="start" x="479.73" y="-473.59" font-family="Helvetica,sans-Serif" font-weight="bold" font-size="32.00" fill="#29235c">(!)</text>
<polygon fill="#e7e2dd" stroke="transparent" points="140.93,-392.39 140.93,-452.39 520.93,-452.39 520.93,-392.39 140.93,-392.39"/>
<polygon fill="none" stroke="#29235c" points="140.93,-392.39 140.93,-452.39 520.93,-452.39 520.93,-392.39 140.93,-392.39"/>
<text text-anchor="start" x="151.93" y="-412.59" font-family="Helvetica,sans-Serif" font-size="32.00" fill="#29235c">rating &#160;&#160;&#160;</text>
<text text-anchor="start" x="373.03" y="-413.59" font-family="Helvetica,sans-Serif" font-style="italic" font-size="32.00" fill="#29235c">integer</text>
<text text-anchor="start" x="470.83" y="-413.59" font-family="Helvetica,sans-Serif" font-size="32.00" fill="#29235c"> </text>
<text text-anchor="start" x="479.73" y="-413.59" font-family="Helvetica,sans-Serif" font-weight="bold" font-size="32.00" fill="#29235c">(!)</text>
<polygon fill="none" stroke="#29235c" stroke-width="2" points="139.93,-391.39 139.93,-753.39 521.93,-753.39 521.93,-391.39 139.93,-391.39"/>
</g>
<!-- food_ratings&#45;&gt;food_items -->
<!-- food_ratings&#45;&gt;food_items -->
<g id="edge2" class="edge">
<title>food_ratings:e&#45;&gt;food_items:w</title>
<path fill="none" stroke="#29235c" stroke-width="3" d="M521.93,-602.39C634.3,-602.39 658.36,-658.81 765.39,-662.23"/>
<polygon fill="#29235c" stroke="#29235c" stroke-width="3" points="765.61,-665.73 775.66,-662.39 765.72,-658.73 765.61,-665.73"/>
<text text-anchor="middle" x="784.56" y="-633.59" font-family="Helvetica,sans-Serif" font-size="32.00" fill="#29235c">1</text>
<text text-anchor="middle" x="515.7" y="-573.59" font-family="Helvetica,sans-Serif" font-size="32.00" fill="#29235c">*</text>
</g>
<!-- restaurants -->
<g id="restaurants" class="node">
<title>restaurants</title>
<ellipse fill="none" stroke="black" stroke-width="0" cx="927.66" cy="-1152.39" rx="229.62" ry="342.48"/>
<polygon fill="#1d71b8" stroke="transparent" points="767.66,-1332.39 767.66,-1392.39 1088.66,-1392.39 1088.66,-1332.39 767.66,-1332.39"/>
<polygon fill="none" stroke="#29235c" points="767.66,-1332.39 767.66,-1392.39 1088.66,-1392.39 1088.66,-1332.39 767.66,-1332.39"/>
<text text-anchor="start" x="785.89" y="-1353.59" font-family="Helvetica,sans-Serif" font-weight="bold" font-size="32.00" fill="#ffffff"> &#160;&#160;&#160;&#160;&#160;&#160;restaurants &#160;&#160;&#160;&#160;&#160;&#160;</text>
<polygon fill="#e7e2dd" stroke="transparent" points="767.66,-1272.39 767.66,-1332.39 1088.66,-1332.39 1088.66,-1272.39 767.66,-1272.39"/>
<polygon fill="none" stroke="#29235c" points="767.66,-1272.39 767.66,-1332.39 1088.66,-1332.39 1088.66,-1272.39 767.66,-1272.39"/>
<text text-anchor="start" x="778.66" y="-1293.59" font-family="Helvetica,sans-Serif" font-weight="bold" font-size="32.00" fill="#29235c">id</text>
<text text-anchor="start" x="803.55" y="-1293.59" font-family="Helvetica,sans-Serif" font-size="32.00" fill="#29235c"> &#160;&#160;&#160;</text>
<text text-anchor="start" x="962.14" y="-1293.59" font-family="Helvetica,sans-Serif" font-style="italic" font-size="32.00" fill="#29235c">serial</text>
<text text-anchor="start" x="1038.57" y="-1293.59" font-family="Helvetica,sans-Serif" font-size="32.00" fill="#29235c"> </text>
<text text-anchor="start" x="1047.46" y="-1293.59" font-family="Helvetica,sans-Serif" font-weight="bold" font-size="32.00" fill="#29235c">(!)</text>
<polygon fill="#e7e2dd" stroke="transparent" points="767.66,-1212.39 767.66,-1272.39 1088.66,-1272.39 1088.66,-1212.39 767.66,-1212.39"/>
<polygon fill="none" stroke="#29235c" points="767.66,-1212.39 767.66,-1272.39 1088.66,-1272.39 1088.66,-1212.39 767.66,-1212.39"/>
<text text-anchor="start" x="778.66" y="-1232.59" font-family="Helvetica,sans-Serif" font-size="32.00" fill="#29235c">name &#160;&#160;&#160;</text>
<text text-anchor="start" x="987" y="-1233.59" font-family="Helvetica,sans-Serif" font-style="italic" font-size="32.00" fill="#29235c">text</text>
<text text-anchor="start" x="1038.57" y="-1233.59" font-family="Helvetica,sans-Serif" font-size="32.00" fill="#29235c"> </text>
<text text-anchor="start" x="1047.46" y="-1233.59" font-family="Helvetica,sans-Serif" font-weight="bold" font-size="32.00" fill="#29235c">(!)</text>
<polygon fill="#e7e2dd" stroke="transparent" points="767.66,-1152.39 767.66,-1212.39 1088.66,-1212.39 1088.66,-1152.39 767.66,-1152.39"/>
<polygon fill="none" stroke="#29235c" points="767.66,-1152.39 767.66,-1212.39 1088.66,-1212.39 1088.66,-1152.39 767.66,-1152.39"/>
<text text-anchor="start" x="778.66" y="-1172.59" font-family="Helvetica,sans-Serif" font-size="32.00" fill="#29235c">address &#160;&#160;&#160;</text>
<text text-anchor="start" x="987" y="-1173.59" font-family="Helvetica,sans-Serif" font-style="italic" font-size="32.00" fill="#29235c">text</text>
<text text-anchor="start" x="1038.57" y="-1173.59" font-family="Helvetica,sans-Serif" font-size="32.00" fill="#29235c"> </text>
<text text-anchor="start" x="1047.46" y="-1173.59" font-family="Helvetica,sans-Serif" font-weight="bold" font-size="32.00" fill="#29235c">(!)</text>
<polygon fill="#e7e2dd" stroke="transparent" points="767.66,-1092.39 767.66,-1152.39 1088.66,-1152.39 1088.66,-1092.39 767.66,-1092.39"/>
<polygon fill="none" stroke="#29235c" points="767.66,-1092.39 767.66,-1152.39 1088.66,-1152.39 1088.66,-1092.39 767.66,-1092.39"/>
<text text-anchor="start" x="778.66" y="-1112.59" font-family="Helvetica,sans-Serif" font-size="32.00" fill="#29235c">state &#160;&#160;&#160;</text>
<text text-anchor="start" x="987" y="-1113.59" font-family="Helvetica,sans-Serif" font-style="italic" font-size="32.00" fill="#29235c">text</text>
<text text-anchor="start" x="1038.57" y="-1113.59" font-family="Helvetica,sans-Serif" font-size="32.00" fill="#29235c"> </text>
<text text-anchor="start" x="1047.46" y="-1113.59" font-family="Helvetica,sans-Serif" font-weight="bold" font-size="32.00" fill="#29235c">(!)</text>
<polygon fill="#e7e2dd" stroke="transparent" points="767.66,-1032.39 767.66,-1092.39 1088.66,-1092.39 1088.66,-1032.39 767.66,-1032.39"/>
<polygon fill="none" stroke="#29235c" points="767.66,-1032.39 767.66,-1092.39 1088.66,-1092.39 1088.66,-1032.39 767.66,-1032.39"/>
<text text-anchor="start" x="778.66" y="-1052.59" font-family="Helvetica,sans-Serif" font-size="32.00" fill="#29235c">city &#160;&#160;&#160;</text>
<text text-anchor="start" x="987" y="-1053.59" font-family="Helvetica,sans-Serif" font-style="italic" font-size="32.00" fill="#29235c">text</text>
<text text-anchor="start" x="1038.57" y="-1053.59" font-family="Helvetica,sans-Serif" font-size="32.00" fill="#29235c"> </text>
<text text-anchor="start" x="1047.46" y="-1053.59" font-family="Helvetica,sans-Serif" font-weight="bold" font-size="32.00" fill="#29235c">(!)</text>
<polygon fill="#e7e2dd" stroke="transparent" points="767.66,-972.39 767.66,-1032.39 1088.66,-1032.39 1088.66,-972.39 767.66,-972.39"/>
<polygon fill="none" stroke="#29235c" points="767.66,-972.39 767.66,-1032.39 1088.66,-1032.39 1088.66,-972.39 767.66,-972.39"/>
<text text-anchor="start" x="778.35" y="-992.59" font-family="Helvetica,sans-Serif" font-size="32.00" fill="#29235c">zip_code &#160;&#160;&#160;</text>
<text text-anchor="start" x="941.22" y="-993.59" font-family="Helvetica,sans-Serif" font-style="italic" font-size="32.00" fill="#29235c">integer</text>
<text text-anchor="start" x="1039.02" y="-993.59" font-family="Helvetica,sans-Serif" font-size="32.00" fill="#29235c"> </text>
<text text-anchor="start" x="1047.91" y="-993.59" font-family="Helvetica,sans-Serif" font-weight="bold" font-size="32.00" fill="#29235c">(!)</text>
<polygon fill="#e7e2dd" stroke="transparent" points="767.66,-912.39 767.66,-972.39 1088.66,-972.39 1088.66,-912.39 767.66,-912.39"/>
<polygon fill="none" stroke="#29235c" points="767.66,-912.39 767.66,-972.39 1088.66,-972.39 1088.66,-912.39 767.66,-912.39"/>
<text text-anchor="start" x="778.66" y="-932.59" font-family="Helvetica,sans-Serif" font-size="32.00" fill="#29235c">website &#160;&#160;&#160;</text>
<text text-anchor="start" x="1026.09" y="-933.59" font-family="Helvetica,sans-Serif" font-style="italic" font-size="32.00" fill="#29235c">text</text>
<polygon fill="none" stroke="#29235c" stroke-width="2" points="766.16,-911.39 766.16,-1393.39 1089.16,-1393.39 1089.16,-911.39 766.16,-911.39"/>
</g>
<!-- food_ratings&#45;&gt;restaurants -->
<!-- food_ratings&#45;&gt;restaurants -->
<g id="edge4" class="edge">
<title>food_ratings:e&#45;&gt;restaurants:w</title>
<path fill="none" stroke="#29235c" stroke-width="3" d="M521.93,-542.39C607.35,-542.39 672.92,-1247.03 756.87,-1299.32"/>
<polygon fill="#29235c" stroke="#29235c" stroke-width="3" points="756.07,-1302.74 766.66,-1302.39 758.16,-1296.06 756.07,-1302.74"/>
<text text-anchor="middle" x="775.56" y="-1311.99" font-family="Helvetica,sans-Serif" font-size="32.00" fill="#29235c">1</text>
<text text-anchor="middle" x="515.7" y="-513.59" font-family="Helvetica,sans-Serif" font-size="32.00" fill="#29235c">*</text>
</g>
<!-- users -->
<g id="users" class="node">
<title>users</title>
<ellipse fill="none" stroke="black" stroke-width="0" cx="927.66" cy="-257.39" rx="203.79" ry="257.27"/>
<polygon fill="#1d71b8" stroke="transparent" points="785.66,-377.39 785.66,-437.39 1069.66,-437.39 1069.66,-377.39 785.66,-377.39"/>
<polygon fill="none" stroke="#29235c" points="785.66,-377.39 785.66,-437.39 1069.66,-437.39 1069.66,-377.39 785.66,-377.39"/>
<text text-anchor="start" x="826.3" y="-398.59" font-family="Helvetica,sans-Serif" font-weight="bold" font-size="32.00" fill="#ffffff"> &#160;&#160;&#160;&#160;&#160;&#160;users &#160;&#160;&#160;&#160;&#160;&#160;</text>
<polygon fill="#e7e2dd" stroke="transparent" points="785.66,-317.39 785.66,-377.39 1069.66,-377.39 1069.66,-317.39 785.66,-317.39"/>
<polygon fill="none" stroke="#29235c" points="785.66,-317.39 785.66,-377.39 1069.66,-377.39 1069.66,-317.39 785.66,-317.39"/>
<text text-anchor="start" x="796.66" y="-338.59" font-family="Helvetica,sans-Serif" font-weight="bold" font-size="32.00" fill="#29235c">id</text>
<text text-anchor="start" x="821.55" y="-338.59" font-family="Helvetica,sans-Serif" font-size="32.00" fill="#29235c"> &#160;&#160;&#160;</text>
<text text-anchor="start" x="943.14" y="-338.59" font-family="Helvetica,sans-Serif" font-style="italic" font-size="32.00" fill="#29235c">serial</text>
<text text-anchor="start" x="1019.57" y="-338.59" font-family="Helvetica,sans-Serif" font-size="32.00" fill="#29235c"> </text>
<text text-anchor="start" x="1028.46" y="-338.59" font-family="Helvetica,sans-Serif" font-weight="bold" font-size="32.00" fill="#29235c">(!)</text>
<polygon fill="#e7e2dd" stroke="transparent" points="785.66,-257.39 785.66,-317.39 1069.66,-317.39 1069.66,-257.39 785.66,-257.39"/>
<polygon fill="none" stroke="#29235c" points="785.66,-257.39 785.66,-317.39 1069.66,-317.39 1069.66,-257.39 785.66,-257.39"/>
<text text-anchor="start" x="796.66" y="-277.59" font-family="Helvetica,sans-Serif" font-size="32.00" fill="#29235c">email &#160;&#160;&#160;</text>
<text text-anchor="start" x="968" y="-278.59" font-family="Helvetica,sans-Serif" font-style="italic" font-size="32.00" fill="#29235c">text</text>
<text text-anchor="start" x="1019.57" y="-278.59" font-family="Helvetica,sans-Serif" font-size="32.00" fill="#29235c"> </text>
<text text-anchor="start" x="1028.46" y="-278.59" font-family="Helvetica,sans-Serif" font-weight="bold" font-size="32.00" fill="#29235c">(!)</text>
<polygon fill="#e7e2dd" stroke="transparent" points="785.66,-197.39 785.66,-257.39 1069.66,-257.39 1069.66,-197.39 785.66,-197.39"/>
<polygon fill="none" stroke="#29235c" points="785.66,-197.39 785.66,-257.39 1069.66,-257.39 1069.66,-197.39 785.66,-197.39"/>
<text text-anchor="start" x="796.42" y="-217.59" font-family="Helvetica,sans-Serif" font-size="32.00" fill="#29235c">passowrd &#160;&#160;&#160;</text>
<text text-anchor="start" x="968.33" y="-218.59" font-family="Helvetica,sans-Serif" font-style="italic" font-size="32.00" fill="#29235c">text</text>
<text text-anchor="start" x="1019.9" y="-218.59" font-family="Helvetica,sans-Serif" font-size="32.00" fill="#29235c"> </text>
<text text-anchor="start" x="1028.8" y="-218.59" font-family="Helvetica,sans-Serif" font-weight="bold" font-size="32.00" fill="#29235c">(!)</text>
<polygon fill="#e7e2dd" stroke="transparent" points="785.66,-137.39 785.66,-197.39 1069.66,-197.39 1069.66,-137.39 785.66,-137.39"/>
<polygon fill="none" stroke="#29235c" points="785.66,-137.39 785.66,-197.39 1069.66,-197.39 1069.66,-137.39 785.66,-137.39"/>
<text text-anchor="start" x="796.66" y="-157.59" font-family="Helvetica,sans-Serif" font-size="32.00" fill="#29235c">first_name &#160;&#160;&#160;</text>
<text text-anchor="start" x="1007.09" y="-158.59" font-family="Helvetica,sans-Serif" font-style="italic" font-size="32.00" fill="#29235c">text</text>
<polygon fill="#e7e2dd" stroke="transparent" points="785.66,-77.39 785.66,-137.39 1069.66,-137.39 1069.66,-77.39 785.66,-77.39"/>
<polygon fill="none" stroke="#29235c" points="785.66,-77.39 785.66,-137.39 1069.66,-137.39 1069.66,-77.39 785.66,-77.39"/>
<text text-anchor="start" x="796.66" y="-97.59" font-family="Helvetica,sans-Serif" font-size="32.00" fill="#29235c">last_name &#160;&#160;&#160;</text>
<text text-anchor="start" x="1007.09" y="-98.59" font-family="Helvetica,sans-Serif" font-style="italic" font-size="32.00" fill="#29235c">text</text>
<polygon fill="none" stroke="#29235c" stroke-width="2" points="784.66,-76.39 784.66,-438.39 1070.66,-438.39 1070.66,-76.39 784.66,-76.39"/>
</g>
<!-- food_ratings&#45;&gt;users -->
<!-- food_ratings&#45;&gt;users -->
<g id="edge6" class="edge">
<title>food_ratings:e&#45;&gt;users:w</title>
<path fill="none" stroke="#29235c" stroke-width="3" d="M521.93,-482.39C649.75,-482.39 653.28,-354.41 774.55,-347.66"/>
<polygon fill="#29235c" stroke="#29235c" stroke-width="3" points="774.76,-351.16 784.66,-347.39 774.57,-344.16 774.76,-351.16"/>
<text text-anchor="middle" x="793.56" y="-318.59" font-family="Helvetica,sans-Serif" font-size="32.00" fill="#29235c">1</text>
<text text-anchor="middle" x="515.7" y="-453.59" font-family="Helvetica,sans-Serif" font-size="32.00" fill="#29235c">*</text>
</g>
<!-- restaurant_cuisines -->
<g id="restaurant_cuisines" class="node">
<title>restaurant_cuisines</title>
<ellipse fill="none" stroke="black" stroke-width="0" cx="330.93" cy="-1452.39" rx="301.87" ry="130.22"/>
<polygon fill="#1d71b8" stroke="transparent" points="119.93,-1482.39 119.93,-1542.39 542.93,-1542.39 542.93,-1482.39 119.93,-1482.39"/>
<polygon fill="none" stroke="#29235c" points="119.93,-1482.39 119.93,-1542.39 542.93,-1542.39 542.93,-1482.39 119.93,-1482.39"/>
<text text-anchor="start" x="130.48" y="-1503.59" font-family="Helvetica,sans-Serif" font-weight="bold" font-size="32.00" fill="#ffffff"> &#160;&#160;&#160;&#160;&#160;&#160;restaurant_cuisines &#160;&#160;&#160;&#160;&#160;&#160;</text>
<polygon fill="#e7e2dd" stroke="transparent" points="119.93,-1422.39 119.93,-1482.39 542.93,-1482.39 542.93,-1422.39 119.93,-1422.39"/>
<polygon fill="none" stroke="#29235c" points="119.93,-1422.39 119.93,-1482.39 542.93,-1482.39 542.93,-1422.39 119.93,-1422.39"/>
<text text-anchor="start" x="130.93" y="-1442.59" font-family="Helvetica,sans-Serif" font-size="32.00" fill="#29235c">restaurant_id &#160;&#160;&#160;</text>
<text text-anchor="start" x="395.03" y="-1443.59" font-family="Helvetica,sans-Serif" font-style="italic" font-size="32.00" fill="#29235c">integer</text>
<text text-anchor="start" x="492.83" y="-1443.59" font-family="Helvetica,sans-Serif" font-size="32.00" fill="#29235c"> </text>
<text text-anchor="start" x="501.73" y="-1443.59" font-family="Helvetica,sans-Serif" font-weight="bold" font-size="32.00" fill="#29235c">(!)</text>
<polygon fill="#e7e2dd" stroke="transparent" points="119.93,-1362.39 119.93,-1422.39 542.93,-1422.39 542.93,-1362.39 119.93,-1362.39"/>
<polygon fill="none" stroke="#29235c" points="119.93,-1362.39 119.93,-1422.39 542.93,-1422.39 542.93,-1362.39 119.93,-1362.39"/>
<text text-anchor="start" x="130.93" y="-1382.59" font-family="Helvetica,sans-Serif" font-size="32.00" fill="#29235c">cuisine_id &#160;&#160;&#160;</text>
<text text-anchor="start" x="395.03" y="-1383.59" font-family="Helvetica,sans-Serif" font-style="italic" font-size="32.00" fill="#29235c">integer</text>
<text text-anchor="start" x="492.83" y="-1383.59" font-family="Helvetica,sans-Serif" font-size="32.00" fill="#29235c"> </text>
<text text-anchor="start" x="501.73" y="-1383.59" font-family="Helvetica,sans-Serif" font-weight="bold" font-size="32.00" fill="#29235c">(!)</text>
<polygon fill="none" stroke="#29235c" stroke-width="2" points="118.43,-1361.39 118.43,-1543.39 543.43,-1543.39 543.43,-1361.39 118.43,-1361.39"/>
</g>
<!-- restaurant_cuisines&#45;&gt;cuisines -->
<!-- restaurant_cuisines&#45;&gt;cuisines -->
<g id="edge10" class="edge">
<title>restaurant_cuisines:e&#45;&gt;cuisines:w</title>
<path fill="none" stroke="#29235c" stroke-width="3" d="M543.93,-1392.39C698.07,-1392.39 640.73,-1631.28 785.37,-1642.01"/>
<polygon fill="#29235c" stroke="#29235c" stroke-width="3" points="785.54,-1645.52 795.66,-1642.39 785.79,-1638.53 785.54,-1645.52"/>
<text text-anchor="middle" x="804.56" y="-1651.99" font-family="Helvetica,sans-Serif" font-size="32.00" fill="#29235c">1</text>
<text text-anchor="middle" x="537.7" y="-1401.99" font-family="Helvetica,sans-Serif" font-size="32.00" fill="#29235c">*</text>
</g>
<!-- restaurant_cuisines&#45;&gt;restaurants -->
<!-- restaurant_cuisines&#45;&gt;restaurants -->
<g id="edge8" class="edge">
<title>restaurant_cuisines:e&#45;&gt;restaurants:w</title>
<path fill="none" stroke="#29235c" stroke-width="3" d="M543.93,-1452.39C659.78,-1452.39 648.13,-1311.05 756.51,-1302.77"/>
<polygon fill="#29235c" stroke="#29235c" stroke-width="3" points="756.8,-1306.26 766.66,-1302.39 756.54,-1299.26 756.8,-1306.26"/>
<text text-anchor="middle" x="775.56" y="-1273.59" font-family="Helvetica,sans-Serif" font-size="32.00" fill="#29235c">1</text>
<text text-anchor="middle" x="537.7" y="-1461.99" font-family="Helvetica,sans-Serif" font-size="32.00" fill="#29235c">*</text>
</g>
<!-- restaurant_food_items -->
<g id="restaurant_food_items" class="node">
<title>restaurant_food_items</title>
<ellipse fill="none" stroke="black" stroke-width="0" cx="330.93" cy="-1151.39" rx="330.85" ry="130.22"/>
<polygon fill="#1d71b8" stroke="transparent" points="98.93,-1181.39 98.93,-1241.39 562.93,-1241.39 562.93,-1181.39 98.93,-1181.39"/>
<polygon fill="none" stroke="#29235c" points="98.93,-1181.39 98.93,-1241.39 562.93,-1241.39 562.93,-1181.39 98.93,-1181.39"/>
<text text-anchor="start" x="109.52" y="-1202.59" font-family="Helvetica,sans-Serif" font-weight="bold" font-size="32.00" fill="#ffffff"> &#160;&#160;&#160;&#160;&#160;&#160;restaurant_food_items &#160;&#160;&#160;&#160;&#160;&#160;</text>
<polygon fill="#e7e2dd" stroke="transparent" points="98.93,-1121.39 98.93,-1181.39 562.93,-1181.39 562.93,-1121.39 98.93,-1121.39"/>
<polygon fill="none" stroke="#29235c" points="98.93,-1121.39 98.93,-1181.39 562.93,-1181.39 562.93,-1121.39 98.93,-1121.39"/>
<text text-anchor="start" x="109.93" y="-1141.59" font-family="Helvetica,sans-Serif" font-size="32.00" fill="#29235c">food_id &#160;&#160;&#160;</text>
<text text-anchor="start" x="415.03" y="-1142.59" font-family="Helvetica,sans-Serif" font-style="italic" font-size="32.00" fill="#29235c">integer</text>
<text text-anchor="start" x="512.83" y="-1142.59" font-family="Helvetica,sans-Serif" font-size="32.00" fill="#29235c"> </text>
<text text-anchor="start" x="521.73" y="-1142.59" font-family="Helvetica,sans-Serif" font-weight="bold" font-size="32.00" fill="#29235c">(!)</text>
<polygon fill="#e7e2dd" stroke="transparent" points="98.93,-1061.39 98.93,-1121.39 562.93,-1121.39 562.93,-1061.39 98.93,-1061.39"/>
<polygon fill="none" stroke="#29235c" points="98.93,-1061.39 98.93,-1121.39 562.93,-1121.39 562.93,-1061.39 98.93,-1061.39"/>
<text text-anchor="start" x="109.93" y="-1081.59" font-family="Helvetica,sans-Serif" font-size="32.00" fill="#29235c">restaurant_id &#160;&#160;&#160;</text>
<text text-anchor="start" x="415.03" y="-1082.59" font-family="Helvetica,sans-Serif" font-style="italic" font-size="32.00" fill="#29235c">integer</text>
<text text-anchor="start" x="512.83" y="-1082.59" font-family="Helvetica,sans-Serif" font-size="32.00" fill="#29235c"> </text>
<text text-anchor="start" x="521.73" y="-1082.59" font-family="Helvetica,sans-Serif" font-weight="bold" font-size="32.00" fill="#29235c">(!)</text>
<polygon fill="none" stroke="#29235c" stroke-width="2" points="97.93,-1060.39 97.93,-1242.39 563.93,-1242.39 563.93,-1060.39 97.93,-1060.39"/>
</g>
<!-- restaurant_food_items&#45;&gt;food_items -->
<!-- restaurant_food_items&#45;&gt;food_items -->
<g id="edge12" class="edge">
<title>restaurant_food_items:e&#45;&gt;food_items:w</title>
<path fill="none" stroke="#29235c" stroke-width="3" d="M563.93,-1151.39C797.29,-1151.39 546.4,-676.61 765.57,-662.7"/>
<polygon fill="#29235c" stroke="#29235c" stroke-width="3" points="765.77,-666.19 775.66,-662.39 765.56,-659.2 765.77,-666.19"/>
<text text-anchor="middle" x="784.56" y="-671.99" font-family="Helvetica,sans-Serif" font-size="32.00" fill="#29235c">1</text>
<text text-anchor="middle" x="557.7" y="-1160.99" font-family="Helvetica,sans-Serif" font-size="32.00" fill="#29235c">*</text>
</g>
<!-- restaurant_food_items&#45;&gt;restaurants -->
<!-- restaurant_food_items&#45;&gt;restaurants -->
<g id="edge14" class="edge">
<title>restaurant_food_items:e&#45;&gt;restaurants:w</title>
<path fill="none" stroke="#29235c" stroke-width="3" d="M563.93,-1091.39C690.42,-1091.39 639.61,-1291.01 756.41,-1301.92"/>
<polygon fill="#29235c" stroke="#29235c" stroke-width="3" points="756.51,-1305.43 766.66,-1302.39 756.83,-1298.44 756.51,-1305.43"/>
<text text-anchor="middle" x="757.77" y="-1311.99" font-family="Helvetica,sans-Serif" font-size="32.00" fill="#29235c">1</text>
<text text-anchor="middle" x="557.7" y="-1100.99" font-family="Helvetica,sans-Serif" font-size="32.00" fill="#29235c">*</text>
</g>
<!-- sessions -->
<g id="sessions" class="node">
<title>sessions</title>
<ellipse fill="none" stroke="black" stroke-width="0" cx="330.93" cy="-1773.39" rx="251.96" ry="172.57"/>
<polygon fill="#1d71b8" stroke="transparent" points="154.93,-1833.39 154.93,-1893.39 506.93,-1893.39 506.93,-1833.39 154.93,-1833.39"/>
<polygon fill="none" stroke="#29235c" points="154.93,-1833.39 154.93,-1893.39 506.93,-1893.39 506.93,-1833.39 154.93,-1833.39"/>
<text text-anchor="start" x="206.44" y="-1854.59" font-family="Helvetica,sans-Serif" font-weight="bold" font-size="32.00" fill="#ffffff"> &#160;&#160;&#160;&#160;&#160;&#160;sessions &#160;&#160;&#160;&#160;&#160;&#160;</text>
<polygon fill="#e7e2dd" stroke="transparent" points="154.93,-1773.39 154.93,-1833.39 506.93,-1833.39 506.93,-1773.39 154.93,-1773.39"/>
<polygon fill="none" stroke="#29235c" points="154.93,-1773.39 154.93,-1833.39 506.93,-1833.39 506.93,-1773.39 154.93,-1773.39"/>
<text text-anchor="start" x="165.93" y="-1794.59" font-family="Helvetica,sans-Serif" font-weight="bold" font-size="32.00" fill="#29235c">sid</text>
<text text-anchor="start" x="206.82" y="-1794.59" font-family="Helvetica,sans-Serif" font-size="32.00" fill="#29235c"> &#160;&#160;&#160;</text>
<text text-anchor="start" x="405.26" y="-1794.59" font-family="Helvetica,sans-Serif" font-style="italic" font-size="32.00" fill="#29235c">text</text>
<text text-anchor="start" x="456.83" y="-1794.59" font-family="Helvetica,sans-Serif" font-size="32.00" fill="#29235c"> </text>
<text text-anchor="start" x="465.73" y="-1794.59" font-family="Helvetica,sans-Serif" font-weight="bold" font-size="32.00" fill="#29235c">(!)</text>
<polygon fill="#e7e2dd" stroke="transparent" points="154.93,-1713.39 154.93,-1773.39 506.93,-1773.39 506.93,-1713.39 154.93,-1713.39"/>
<polygon fill="none" stroke="#29235c" points="154.93,-1713.39 154.93,-1773.39 506.93,-1773.39 506.93,-1713.39 154.93,-1713.39"/>
<text text-anchor="start" x="165.93" y="-1733.59" font-family="Helvetica,sans-Serif" font-size="32.00" fill="#29235c">data &#160;&#160;&#160;</text>
<text text-anchor="start" x="398.16" y="-1734.59" font-family="Helvetica,sans-Serif" font-style="italic" font-size="32.00" fill="#29235c">json</text>
<text text-anchor="start" x="456.83" y="-1734.59" font-family="Helvetica,sans-Serif" font-size="32.00" fill="#29235c"> </text>
<text text-anchor="start" x="465.73" y="-1734.59" font-family="Helvetica,sans-Serif" font-weight="bold" font-size="32.00" fill="#29235c">(!)</text>
<polygon fill="#e7e2dd" stroke="transparent" points="154.93,-1653.39 154.93,-1713.39 506.93,-1713.39 506.93,-1653.39 154.93,-1653.39"/>
<polygon fill="none" stroke="#29235c" points="154.93,-1653.39 154.93,-1713.39 506.93,-1713.39 506.93,-1653.39 154.93,-1653.39"/>
<text text-anchor="start" x="165.85" y="-1673.59" font-family="Helvetica,sans-Serif" font-size="32.00" fill="#29235c">expires_at &#160;&#160;&#160;</text>
<text text-anchor="start" x="348.65" y="-1674.59" font-family="Helvetica,sans-Serif" font-style="italic" font-size="32.00" fill="#29235c">timestamp</text>
<polygon fill="none" stroke="#29235c" stroke-width="2" points="153.93,-1652.39 153.93,-1894.39 507.93,-1894.39 507.93,-1652.39 153.93,-1652.39"/>
</g>
</g>
</svg>
