<svg width="1072" height="256" viewBox="0 0 1072 256" fill="none" xmlns="http://www.w3.org/2000/svg">
<g clip-path="url(#clip0_2_10)">
<path d="M943.382 0H128.622C57.9291 0 0.621582 57.3075 0.621582 128C0.621582 198.692 57.9291 256 128.622 256H943.382C1014.07 256 1071.38 198.692 1071.38 128C1071.38 57.3075 1014.07 0 943.382 0Z" fill="#FF4F00"/>
<path d="M253.355 189.996L183.936 135.76C178.926 131.994 174.721 127.263 171.569 121.846C168.416 116.429 166.38 110.436 165.58 104.22M165.58 104.22C164.031 91.6067 167.557 78.8945 175.381 68.8802C183.205 58.866 194.687 52.3699 207.3 50.8212C219.914 49.2724 232.626 52.7978 242.64 60.6218C252.654 68.4458 259.15 79.9275 260.699 92.5411C263.797 117.768 256.746 143.193 241.098 163.221C225.45 183.25 202.486 196.242 177.259 199.339C152.032 202.437 126.608 195.386 106.579 179.738C86.5507 164.09 73.5586 141.127 70.4611 115.899C68.9124 103.286 72.4378 90.5736 80.2618 80.5594C88.0858 70.5451 99.5675 64.0491 112.181 62.5003C124.795 60.9516 137.507 64.477 147.521 72.301C157.535 80.125 164.031 91.6067 165.58 104.22ZM165.58 104.22C167.215 117.537 162.91 129.652 155.4 139.264L101.164 208.683" stroke="black" stroke-width="20" stroke-linecap="round" stroke-linejoin="round"/>
<path d="M368.39 62.4656C378.681 62.4656 388.05 63.7712 396.498 66.3824C404.946 68.84 411.858 72.5264 417.234 77.4416C426.911 86.1968 433.67 95.7968 437.51 106.242C441.503 116.533 443.5 129.742 443.5 145.87C443.5 151.093 441.042 159.848 436.127 172.136C433.362 177.512 430.444 181.736 427.372 184.808C424.454 187.88 419.922 191.566 413.778 195.867C419.001 204.162 423.071 209.845 425.99 212.917C429.062 216.142 432.518 217.755 436.358 217.755C437.586 217.755 438.508 217.678 439.122 217.525C439.583 217.371 440.274 217.294 441.196 217.294C443.346 217.294 445.036 217.986 446.265 219.368C447.647 220.904 448.338 222.67 448.338 224.667C448.338 225.742 448.031 226.894 447.417 228.123C446.802 229.352 445.958 230.274 444.882 230.888C441.964 232.731 439.43 233.883 437.279 234.344C435.129 234.958 431.212 235.266 425.529 235.266C419.538 235.266 414.162 232.578 409.401 227.202C404.793 221.979 399.954 214.683 394.886 205.314C388.281 207.771 381.599 209 374.841 209C345.196 209 324.076 198.862 311.481 178.587C307.948 172.904 305.183 166.99 303.186 160.846C301.343 154.702 300.422 148.712 300.422 142.875C300.422 127.208 303.186 113.538 308.716 101.864C314.399 90.1904 322.233 81.2048 332.217 74.9072C338.054 71.2208 344.198 68.2256 350.649 65.9216C357.254 63.6176 363.167 62.4656 368.39 62.4656ZM323.922 142.875C323.922 148.558 324.767 153.627 326.457 158.082C328.3 162.382 330.911 166.453 334.29 170.293C337.055 164.456 340.972 160.078 346.041 157.16C351.11 154.242 357.1 152.782 364.012 152.782C371.231 152.782 377.375 154.088 382.444 156.699C387.513 159.31 391.276 162.075 393.734 164.994C396.191 167.758 399.263 171.752 402.95 176.974C413.855 168.219 419.308 155.854 419.308 139.88C419.308 127.899 418.002 118.606 415.391 112.002C412.934 105.397 408.249 99.2528 401.337 93.5696C397.65 90.4976 393.042 88.1936 387.513 86.6576C382.137 85.1216 376.377 84.3536 370.233 84.3536C360.863 84.3536 352.646 87.272 345.58 93.1088C338.514 98.792 333.138 106.165 329.452 115.227C325.766 124.136 323.922 133.352 323.922 142.875ZM368.159 170.293C363.858 170.293 359.865 171.214 356.178 173.058C352.492 174.747 349.958 177.973 348.575 182.734L351.57 185.038C354.796 186.267 357.638 187.189 360.095 187.803C362.553 188.264 365.318 188.494 368.39 188.494C373.458 188.494 378.911 187.65 384.748 185.96C381.983 180.891 379.218 177.051 376.454 174.44C373.842 171.675 371.078 170.293 368.159 170.293ZM463.224 131.355C461.996 131.355 460.844 130.894 459.768 129.973C458.847 128.898 458.386 127.669 458.386 126.286C458.386 122.754 459.922 119.451 462.994 116.379C463.916 115.918 465.759 115.15 468.524 114.075C471.288 113 473.746 112.462 475.896 112.462C481.733 112.462 486.495 114.075 490.181 117.301C493.868 120.373 495.711 124.827 495.711 130.664C495.711 132.354 495.404 135.963 494.789 141.493C494.175 147.944 493.868 152.936 493.868 156.469C493.868 167.221 495.327 175.899 498.245 182.504C499.32 184.654 501.01 186.344 503.314 187.573C505.618 188.802 507.692 189.416 509.535 189.416C513.989 189.416 517.599 188.648 520.364 187.112C523.128 185.576 526.124 183.118 529.349 179.739C532.575 176.36 534.648 172.52 535.57 168.219C536.645 163.918 537.413 158.005 537.874 150.478C538.181 145.563 538.488 141.954 538.796 139.65C539.564 132.277 539.948 125.979 539.948 120.757C539.948 117.378 540.869 114.613 542.712 112.462C544.556 110.158 547.09 109.006 550.316 109.006C552.159 109.006 554.232 109.621 556.536 110.85C558.994 111.925 560.607 113.23 561.375 114.766C562.296 116.302 562.757 118.837 562.757 122.37C562.757 124.213 562.527 125.979 562.066 127.669C560.991 131.509 560.453 136.117 560.453 141.493L560.684 153.474C560.684 164.379 561.452 172.443 562.988 177.666C563.756 180.123 564.831 182.658 566.213 185.269C567.596 187.726 568.901 189.8 570.13 191.49C573.202 194.869 575.199 197.25 576.12 198.632C577.042 199.861 577.503 201.09 577.503 202.318C577.503 204.162 576.581 205.928 574.738 207.618C573.048 209.154 571.205 209.922 569.208 209.922C563.525 209.922 558.61 208.002 554.463 204.162C550.316 200.322 547.244 195.33 545.247 189.186C540.024 195.176 535.186 200.014 530.732 203.701C527.66 205.851 523.896 207.464 519.442 208.539C514.988 209.461 510.533 209.922 506.079 209.922C500.088 209.922 494.021 207.464 487.877 202.549C481.733 197.634 477.586 191.95 475.436 185.499C475.282 185.192 474.821 183.963 474.053 181.813C473.439 179.662 473.132 176.437 473.132 172.136C473.132 166.453 473.439 159.31 474.053 150.709C474.514 145.179 474.744 140.11 474.744 135.502C474.744 134.12 474.207 132.968 473.132 132.046C472.21 131.125 471.135 130.664 469.906 130.664C468.984 130.664 467.909 130.818 466.68 131.125C465.605 131.278 464.453 131.355 463.224 131.355ZM592.648 156.238C592.648 146.869 594.722 139.112 598.869 132.968C603.016 126.67 608.776 120.757 616.149 115.227C618.299 113.691 621.909 112.386 626.978 111.31C632.046 110.082 636.501 109.467 640.341 109.467C644.949 109.467 649.787 110.466 654.856 112.462C660.078 114.306 664.302 116.456 667.528 118.914C673.211 123.061 677.128 127.899 679.278 133.429C681.429 138.805 682.504 145.256 682.504 152.782C682.504 156.008 680.661 159.157 676.974 162.229C673.442 165.147 669.602 166.606 665.454 166.606L656.699 166.376C652.245 166.376 645.87 166.53 637.576 166.837L632.738 167.067C629.358 167.374 626.824 167.528 625.134 167.528C622.677 167.528 619.298 167.221 614.997 166.606C615.611 173.826 618.299 179.509 623.061 183.656C627.822 187.65 632.968 189.646 638.498 189.646C648.174 189.646 654.933 187.726 658.773 183.886C661.998 181.582 664.149 180.123 665.224 179.509C666.299 178.894 667.989 178.587 670.293 178.587C672.75 178.587 674.901 179.739 676.744 182.043C678.587 184.347 679.509 186.651 679.509 188.955C679.509 191.566 677.896 194.254 674.67 197.019C671.598 199.63 667.374 202.395 661.998 205.314C659.08 206.542 655.086 207.618 650.018 208.539C644.949 209.461 640.725 209.922 637.346 209.922C631.97 209.922 625.979 208.386 619.374 205.314C612.77 202.088 607.854 198.555 604.629 194.715C601.403 190.875 598.562 185.422 596.104 178.357C593.8 171.291 592.648 163.918 592.648 156.238ZM638.498 150.018C649.403 150.018 657.39 149.634 662.459 148.866C662.152 144.411 660.77 140.802 658.312 138.037C655.854 135.118 652.475 132.661 648.174 130.664C646.792 130.05 645.563 129.589 644.488 129.282C643.413 128.974 642.184 128.821 640.802 128.821C633.736 128.821 627.746 130.741 622.83 134.581C618.069 138.421 615.227 143.336 614.306 149.326C621.986 149.787 630.05 150.018 638.498 150.018ZM704.302 129.282C702.152 128.974 700.385 128.053 699.003 126.517C697.774 124.981 697.16 123.138 697.16 120.987C697.16 119.912 697.39 118.76 697.851 117.531C698.465 116.302 699.31 115.227 700.385 114.306C702.382 112.309 707.758 111.31 716.513 111.31C717.742 105.32 718.356 99.2528 718.356 93.1088C718.356 90.8048 718.28 88.808 718.126 87.1184C717.972 85.4288 717.896 84.1232 717.896 83.2016C717.896 79.8224 719.124 77.288 721.582 75.5984C724.193 73.9088 727.112 73.064 730.337 73.064C734.331 73.064 737.019 74.0624 738.401 76.0592C739.937 78.056 740.705 81.7424 740.705 87.1184C740.705 95.1056 740.014 102.939 738.632 110.619C741.089 110.619 744.468 110.466 748.769 110.158C754.606 109.851 758.83 109.698 761.441 109.698C764.052 109.698 766.28 110.389 768.123 111.771C770.12 113 771.118 114.766 771.118 117.07C771.118 123.061 768.43 126.594 763.054 127.669C757.371 129.051 748.539 129.896 736.558 130.203C736.097 136.194 735.867 142.722 735.867 149.787C735.867 160.846 736.558 169.909 737.94 176.974C738.862 181.89 740.398 185.499 742.548 187.803C744.852 189.954 748.232 191.029 752.686 191.029C755.297 191.029 757.985 190.338 760.75 188.955C762.593 187.88 764.283 187.342 765.819 187.342C767.969 187.342 769.505 188.034 770.427 189.416C771.502 190.798 772.04 192.642 772.04 194.946C772.04 199.246 769.736 202.856 765.128 205.774C760.52 208.539 754.606 209.922 747.387 209.922C742.932 209.922 738.401 208.846 733.793 206.696C729.339 204.546 725.576 201.858 722.504 198.632C722.043 198.171 721.198 196.405 719.969 193.333C718.74 190.261 717.665 186.958 716.744 183.426C715.208 176.206 714.44 166.069 714.44 153.013C714.44 147.33 714.747 139.726 715.361 130.203L704.302 129.282ZM870.645 130.203C865.269 139.573 856.591 149.941 844.61 161.307L840.693 164.994C831.017 174.363 821.724 182.427 812.815 189.186C813.89 189.339 816.041 189.416 819.266 189.416L832.169 189.186C835.548 189.186 840.463 188.571 846.914 187.342C853.058 186.114 857.589 185.499 860.508 185.499C864.962 185.499 870.031 187.035 875.714 190.107C877.097 190.722 878.249 191.95 879.17 193.794C880.092 195.483 880.553 197.096 880.553 198.632C880.553 200.629 879.861 202.856 878.479 205.314C877.097 207.771 875.484 209 873.641 209C871.951 209 870.031 208.693 867.881 208.078C867.573 207.925 866.652 207.694 865.116 207.387C863.733 207.08 862.121 206.926 860.277 206.926C854.901 206.926 847.759 207.31 838.85 208.078C826.562 209 817.5 209.461 811.663 209.461C804.29 209.461 798.453 208.539 794.153 206.696C790.005 204.853 787.932 201.397 787.932 196.328C787.932 191.413 789.391 187.035 792.309 183.195C795.381 179.355 799.605 175.054 804.981 170.293C807.285 168.45 809.282 166.683 810.972 164.994C814.197 161.768 818.268 158.082 823.183 153.934C828.559 149.326 833.013 145.256 836.546 141.723C840.233 138.037 843.074 134.504 845.071 131.125C843.842 131.125 842.383 131.202 840.693 131.355C839.157 131.509 837.545 131.662 835.855 131.816C830.633 132.43 827.484 132.738 826.409 132.738C820.111 132.738 813.276 132.277 805.903 131.355C799.605 130.741 795.381 129.896 793.231 128.821C791.081 127.592 790.005 125.134 790.005 121.448C790.005 119.298 790.773 117.301 792.309 115.458C793.845 113.461 795.842 112.232 798.3 111.771C798.914 111.618 800.143 111.541 801.986 111.541C804.137 111.541 808.745 111.848 815.81 112.462C823.183 113.077 828.636 113.384 832.169 113.384C834.319 113.384 838.313 113.23 844.149 112.923C848.757 112.462 853.365 112.232 857.973 112.232C861.967 112.232 865.116 112.539 867.42 113.154C869.109 113.768 870.415 114.92 871.337 116.61C872.412 118.146 872.949 119.758 872.949 121.448C872.949 124.213 872.181 127.131 870.645 130.203ZM907.067 61.0832C912.443 61.544 917.051 63.0032 920.891 65.4608C924.884 67.7648 926.881 71.2976 926.881 76.0592C926.881 79.592 925.268 82.4336 922.043 84.584C918.817 86.5808 914.823 87.5792 910.062 87.5792C905.607 87.5792 902.535 86.4272 900.846 84.1232C899.156 81.8192 898.311 79.4384 898.311 76.9808C898.311 72.5264 898.849 68.7632 899.924 65.6912C900.999 62.4656 903.38 60.9296 907.067 61.0832ZM902.459 156.238V149.557C902.459 141.877 902.075 134.888 901.307 128.59C900.692 122.139 900.308 118.146 900.155 116.61C900.308 114.92 901.46 113.307 903.611 111.771C905.761 110.235 907.681 109.467 909.371 109.467C912.289 109.467 915.207 110.082 918.126 111.31C921.198 112.386 923.118 113.768 923.886 115.458C924.654 121.141 925.038 125.518 925.038 128.59C925.038 135.349 925.345 146.408 925.959 161.768L926.19 170.754L926.651 179.509C926.804 181.966 926.958 184.885 927.111 188.264C927.265 191.643 927.342 195.483 927.342 199.784C927.342 202.702 925.883 205.16 922.964 207.157C920.199 209.154 917.281 210.152 914.209 210.152C909.755 210.152 906.606 209.154 904.763 207.157C903.073 205.16 902.228 202.011 902.228 197.71L902.459 156.238ZM980.082 173.288C980.082 179.125 980.927 183.656 982.616 186.882C984.459 189.954 986.763 191.49 989.528 191.49C991.064 191.49 992.523 191.413 993.906 191.259C995.288 190.952 996.671 190.798 998.053 190.798C999.589 190.798 1000.89 191.566 1001.97 193.102C1003.2 194.638 1003.81 196.328 1003.81 198.171C1003.81 201.858 1002.05 204.776 998.514 206.926C995.135 208.923 990.527 209.922 984.69 209.922C980.543 209.922 976.319 208.693 972.018 206.235C967.871 203.624 964.415 199.63 961.65 194.254C958.885 188.725 957.503 181.89 957.503 173.749C957.503 156.238 957.81 141.416 958.424 129.282C959.192 114.843 959.576 96.6416 959.576 74.6768C959.576 67.7648 959.96 62.9264 960.728 60.1616C961.65 58.0112 963.109 56.3984 965.106 55.3232C967.256 54.0944 969.483 53.48 971.787 53.48C974.091 53.48 976.088 53.864 977.778 54.632C979.621 55.4 980.85 56.6288 981.464 58.3184C982.079 60.1616 982.463 62.0048 982.616 63.848C982.923 65.5376 983.077 67.9952 983.077 71.2208C983.077 77.5184 982.847 83.5856 982.386 89.4224C982.079 96.488 981.925 101.634 981.925 104.859C980.696 131.893 980.082 154.702 980.082 173.288Z" fill="black"/>
</g>
<defs>
<clipPath id="clip0_2_10">
<rect width="1072" height="256" fill="white"/>
</clipPath>
</defs>
</svg>
