<svg width="48" height="48" viewBox="0 0 48 48" fill="none" xmlns="http://www.w3.org/2000/svg">
<g id="Sort-Icon">
<path id="Vector" d="M4 10.3333C4 9.44928 4.35119 8.60143 4.97631 7.97631C5.60143 7.35119 6.44928 7 7.33333 7H40.6667C41.5507 7 42.3986 7.35119 43.0237 7.97631C43.6488 8.60143 44 9.44928 44 10.3333C44 11.2174 43.6488 12.0652 43.0237 12.6904C42.3986 13.3155 41.5507 13.6667 40.6667 13.6667H7.33333C6.44928 13.6667 5.60143 13.3155 4.97631 12.6904C4.35119 12.0652 4 11.2174 4 10.3333ZM10.6667 23.6667C10.6667 22.7826 11.0179 21.9348 11.643 21.3096C12.2681 20.6845 13.1159 20.3333 14 20.3333H34C34.8841 20.3333 35.7319 20.6845 36.357 21.3096C36.9821 21.9348 37.3333 22.7826 37.3333 23.6667C37.3333 24.5507 36.9821 25.3986 36.357 26.0237C35.7319 26.6488 34.8841 27 34 27H14C13.1159 27 12.2681 26.6488 11.643 26.0237C11.0179 25.3986 10.6667 24.5507 10.6667 23.6667ZM20.6667 33.6667C19.7826 33.6667 18.9348 34.0179 18.3096 34.643C17.6845 35.2681 17.3333 36.1159 17.3333 37C17.3333 37.8841 17.6845 38.7319 18.3096 39.357C18.9348 39.9821 19.7826 40.3333 20.6667 40.3333H27.3333C28.2174 40.3333 29.0652 39.9821 29.6904 39.357C30.3155 38.7319 30.6667 37.8841 30.6667 37C30.6667 36.1159 30.3155 35.2681 29.6904 34.643C29.0652 34.0179 28.2174 33.6667 27.3333 33.6667H20.6667Z" fill="black"/>
</g>
</svg>
